<?xml version="1.0" encoding="UTF-8"?><svg id="uuid-1baa9758-d001-4967-9c2e-47576f11833f" xmlns="http://www.w3.org/2000/svg" viewBox="0 0 387.68 387.68"><defs><style>.uuid-c9b8eba6-f162-4b5d-8cb3-614933df0f3f{fill:none;}.uuid-3f8144e3-d33d-4eac-8ed9-7ebbd3d37649{fill:#1d1d1b;}</style></defs><g id="uuid-76e64315-0f7b-4e8f-a35a-7815c52c438f"><rect class="uuid-c9b8eba6-f162-4b5d-8cb3-614933df0f3f" x="7.32" y="7.32" width="373.04" height="373.04" rx="28.06" ry="28.06"/><path class="uuid-3f8144e3-d33d-4eac-8ed9-7ebbd3d37649" d="M352.3,387.68H35.38c-19.51,0-35.38-15.87-35.38-35.38V35.38C0,15.87,15.87,0,35.38,0h316.92c19.51,0,35.38,15.87,35.38,35.38v316.92c0,19.51-15.87,35.38-35.38,35.38ZM35.38,7.32c-15.47,0-28.06,12.59-28.06,28.06v316.92c0,15.47,12.59,28.06,28.06,28.06h316.92c15.47,0,28.06-12.59,28.06-28.06V35.38c0-15.47-12.59-28.06-28.06-28.06H35.38Z"/><path class="uuid-3f8144e3-d33d-4eac-8ed9-7ebbd3d37649" d="M303.06,298.7h10.62l-17.3-23.91,15.07-17.57h-10.57l-13.74,16.41v-16.41h-8.68v41.49h8.68v-13.46l3.33-3.95,12.57,17.41ZM249.46,263.78c7.9,0,14.18,6.4,14.18,14.12s-6.28,14.24-14.18,14.24-14.29-6.45-14.29-14.24,6.23-14.12,14.29-14.12M249.46,255.88c-12.9,0-22.97,9.84-22.97,22.02s10.07,22.13,22.97,22.13,22.86-9.9,22.86-22.13-10.12-22.02-22.86-22.02M199.4,263.78c7.9,0,14.18,6.4,14.18,14.12s-6.28,14.24-14.18,14.24-14.29-6.45-14.29-14.24,6.23-14.12,14.29-14.12M199.4,255.88c-12.9,0-22.97,9.84-22.97,22.02s10.07,22.13,22.97,22.13,22.86-9.9,22.86-22.13-10.12-22.02-22.86-22.02M156.31,280.52c4.56,0,7.12,2.11,7.12,5.78,0,3.06-1.61,5.45-7.01,5.45h-3.84v-11.23h3.73ZM155.81,264.17c5.28,0,6.84,2,6.9,4.95,0,3.23-2.61,5.28-7.06,5.28h-3.06v-10.23h3.22ZM172.1,287.3c0-4.5-2.39-8.4-6.51-10.51,3.12-2.17,4.89-5.45,4.89-8.84,0-6-3.22-10.73-12.74-10.73h-13.85v41.49h15.01c9.12,0,13.18-5.56,13.18-11.4M114.38,263.78c7.9,0,14.18,6.4,14.18,14.12s-6.28,14.24-14.18,14.24-14.29-6.45-14.29-14.24,6.23-14.12,14.29-14.12M136.9,299.98l.83-7.51-9.45,1.17c5.45-3.67,8.95-9.79,8.95-16.02,0-11.84-10.12-21.74-22.86-21.74s-22.97,9.84-22.97,22.02,10.07,22.13,22.97,22.13c.5,0,1.06,0,1.56-.05h20.96ZM76.56,298.7h8.62v-41.49h-8.62v41.49Z"/><path class="uuid-3f8144e3-d33d-4eac-8ed9-7ebbd3d37649" d="M289.62,163.27c14.59,0,22.78,6.76,22.78,18.51,0,9.79-5.16,17.44-22.42,17.44h-12.28v-35.95h11.92ZM288.02,110.95c16.91,0,21.89,6.41,22.07,15.84,0,10.32-8.36,16.91-22.6,16.91h-9.79v-32.74h10.32ZM340.16,184.98c0-14.41-7.65-26.87-20.82-33.63,9.97-6.94,15.66-17.44,15.66-28.3,0-19.22-10.32-34.35-40.75-34.35h-44.31v132.76h48.05c29.19,0,42.18-17.8,42.18-36.48M163.46,109.7c25.27,0,45.38,20.47,45.38,45.2s-20.11,45.56-45.38,45.56-45.74-20.64-45.74-45.56,19.93-45.2,45.74-45.2M235.54,225.56l2.67-24.02-30.25,3.74c17.44-11.74,28.65-31.32,28.65-51.25,0-37.9-32.39-69.58-73.14-69.58s-73.5,31.5-73.5,70.47,32.21,70.83,73.5,70.83c1.6,0,3.38,0,4.98-.18h67.09ZM51.44,221.46h27.58V88.71h-27.58v132.76Z"/></g></svg>