<?xml version="1.0" encoding="UTF-8"?><svg id="uuid-62931161-ac7a-4dc7-b7b9-23c2ba59410e" xmlns="http://www.w3.org/2000/svg" viewBox="0 0 204.85 157.41"><defs><style>.uuid-327dd8a6-72f4-4b1e-9967-8df92ba5d0ed{fill:#1d1d1b;}</style></defs><g id="uuid-b6e800d7-6f98-4f75-82fc-87fd1f8baeb4"><path class="uuid-327dd8a6-72f4-4b1e-9967-8df92ba5d0ed" d="M193.44,156.28h9l-14.66-20.27,12.78-14.9h-8.96l-11.64,13.91v-13.91h-7.35v35.16h7.35v-11.41l2.83-3.35,10.65,14.75ZM148.01,126.68c6.69,0,12.02,5.42,12.02,11.97s-5.33,12.07-12.02,12.07-12.11-5.47-12.11-12.07,5.28-11.97,12.11-11.97M148.01,119.99c-10.94,0-19.47,8.34-19.47,18.66s8.53,18.76,19.47,18.76,19.37-8.39,19.37-18.76-8.58-18.66-19.37-18.66M105.57,126.68c6.69,0,12.02,5.42,12.02,11.97s-5.33,12.07-12.02,12.07-12.11-5.47-12.11-12.07,5.28-11.97,12.11-11.97M105.57,119.99c-10.94,0-19.47,8.34-19.47,18.66s8.53,18.76,19.47,18.76,19.37-8.39,19.37-18.76-8.58-18.66-19.37-18.66M69.04,140.87c3.87,0,6.03,1.79,6.03,4.9,0,2.59-1.37,4.62-5.94,4.62h-3.25v-9.52h3.16ZM68.62,127.01c4.48,0,5.8,1.7,5.84,4.2,0,2.74-2.21,4.48-5.99,4.48h-2.59v-8.67h2.73ZM82.43,146.62c0-3.82-2.03-7.12-5.52-8.91,2.64-1.84,4.15-4.62,4.15-7.49,0-5.09-2.73-9.1-10.79-9.1h-11.74v35.16h12.73c7.73,0,11.17-4.71,11.17-9.66M33.5,126.68c6.69,0,12.02,5.42,12.02,11.97s-5.33,12.07-12.02,12.07-12.11-5.47-12.11-12.07,5.28-11.97,12.11-11.97M52.6,157.36l.71-6.36-8.01.99c4.62-3.11,7.59-8.3,7.59-13.57,0-10.04-8.58-18.43-19.37-18.43s-19.47,8.34-19.47,18.66,8.53,18.76,19.47,18.76c.42,0,.89,0,1.32-.05h17.77ZM1.44,156.28h7.31v-35.16H1.44v35.16Z"/><path class="uuid-327dd8a6-72f4-4b1e-9967-8df92ba5d0ed" d="M168.99,55.93c10.35,0,16.16,4.8,16.16,13.13,0,6.95-3.66,12.37-15.91,12.37h-8.71v-25.51h8.46ZM167.85,18.81c11.99,0,15.53,4.55,15.66,11.24,0,7.32-5.93,11.99-16.03,11.99h-6.95v-23.23h7.32ZM204.85,71.34c0-10.23-5.43-19.07-14.77-23.86,7.07-4.93,11.11-12.37,11.11-20.08,0-13.64-7.32-24.37-28.91-24.37h-31.44v94.19h34.09c20.71,0,29.92-12.63,29.92-25.88M79.48,17.93c17.93,0,32.2,14.52,32.2,32.07s-14.27,32.32-32.2,32.32-32.45-14.65-32.45-32.32,14.14-32.07,32.45-32.07M130.62,100.13l1.89-17.05-21.46,2.65c12.37-8.33,20.33-22.22,20.33-36.36C131.38,22.47,108.4,0,79.48,0S27.33,22.35,27.33,50s22.85,50.25,52.15,50.25c1.14,0,2.4,0,3.54-.13h47.6ZM0,97.22h19.57V3.03H0v94.19Z"/></g></svg>